<svg width="171" height="36" viewBox="0 0 171 36" fill="none" xmlns="http://www.w3.org/2000/svg">
<g clip-path="url(#clip0_1_2)">
<rect width="171" height="36" fill="white"/>
<path d="M6.09961 27.0879C7.33008 27.3516 8.47266 27.4746 9.52734 27.4746C10.9336 27.4746 12.252 27.1582 13.4824 26.5254C14.7129 25.8926 15.6797 25.0664 16.418 24.0293C17.1387 23.0098 17.5078 21.9199 17.5078 20.7598C17.5078 19.7227 17.3145 18.791 16.9629 17.9473C16.5938 17.1035 15.9609 16.3301 15.0469 15.6094C14.1328 14.8887 12.8848 14.2383 11.3027 13.6758L9.21094 12.9375C7.73438 12.4453 6.66211 11.8301 5.99414 11.127C5.32617 10.4238 4.99219 9.50977 4.99219 8.36719C4.99219 7.48828 5.18555 6.73242 5.60742 6.13477C6.01172 5.53711 6.55664 5.08008 7.24219 4.78125C7.92773 4.5 8.70117 4.3418 9.54492 4.3418C10.9512 4.3418 12.0938 4.79883 12.9551 5.71289C13.8164 6.62695 14.502 8.0332 15.0293 9.94922C15.0996 10.2129 15.2051 10.4062 15.3457 10.5293C15.4863 10.6699 15.6621 10.7227 15.8379 10.7227C16.0488 10.7227 16.2246 10.6523 16.3828 10.5117C16.541 10.3711 16.6289 10.1602 16.6289 9.89648V5.32617C16.6289 5.13281 16.5762 4.95703 16.4707 4.78125C16.3652 4.62305 16.1367 4.44727 15.8203 4.27148C14.8887 3.7793 13.9219 3.41016 12.9023 3.14648C11.8828 2.88281 10.7402 2.74219 9.47461 2.74219C8.05078 2.74219 6.76758 3.02344 5.64258 3.55078C4.5 4.07812 3.60352 4.83398 2.95312 5.80078C2.30273 6.78516 1.98633 7.89258 1.98633 9.1582C1.98633 10.7051 2.46094 12.0234 3.44531 13.0957C4.42969 14.1855 6.04688 15.082 8.29688 15.7852L10.0898 16.3652C11.7598 16.9102 12.9375 17.6133 13.6055 18.4746C14.2734 19.3359 14.6074 20.3555 14.6074 21.5156C14.6074 22.2891 14.3965 22.9746 13.9922 23.6074C13.5879 24.2402 13.0078 24.7324 12.2695 25.1016C11.5312 25.4707 10.6699 25.6465 9.70312 25.6465C8.50781 25.6465 7.41797 25.3828 6.46875 24.8555C5.76562 24.3281 5.13281 23.6074 4.57031 22.7109C4.00781 21.8145 3.56836 20.7949 3.26953 19.6348C3.11133 19.0723 2.84766 18.7734 2.49609 18.7734C2.26758 18.7734 2.0918 18.8613 1.98633 19.0371C1.86328 19.2129 1.81055 19.4238 1.81055 19.6875L1.79297 23.9062C1.79297 24.3984 1.82812 24.7676 1.89844 25.0137C1.96875 25.2773 2.0918 25.5059 2.30273 25.6816C2.51367 25.875 2.83008 26.0684 3.28711 26.2617C3.91992 26.5605 4.86914 26.8418 6.09961 27.0879ZM23.0449 26.9121C23.6426 27.2285 24.2754 27.3691 24.9434 27.3691C25.6641 27.3691 26.332 27.2812 26.9473 27.1055C27.5449 26.9297 28.1953 26.6309 28.8809 26.1914C29.1094 26.0508 29.3203 25.9629 29.5312 25.9629C29.7598 25.9629 29.9883 26.0859 30.2344 26.2969C30.6562 26.7012 31.043 26.9824 31.377 27.1406C31.7109 27.2988 32.0273 27.3691 32.3438 27.3691C32.8008 27.3691 33.3105 27.2109 33.8379 26.877C34.3652 26.5605 34.8223 26.1738 35.1914 25.7168C35.5605 25.2598 35.7539 24.8906 35.7539 24.5918C35.7539 24.416 35.7012 24.2578 35.6133 24.1348C35.5254 24.0293 35.4199 23.959 35.2793 23.959C35.1211 23.959 34.9629 24.0469 34.8047 24.1875C34.5059 24.4688 34.207 24.6797 33.9082 24.8203C33.6094 24.9609 33.3281 25.0312 33.082 25.0312C32.7305 25.0312 32.4668 24.9082 32.2559 24.6621C32.0449 24.416 31.9395 24.082 31.9395 23.625C31.9395 22.7812 31.9395 21.9727 31.9746 21.2168C31.9922 20.4609 32.0098 19.9512 32.0273 19.7051C32.0801 18.4395 32.1152 17.1738 32.1152 15.873C32.1152 14.3613 31.7285 13.2188 30.9727 12.4102C30.1992 11.6016 29.0742 11.1973 27.5625 11.1973C26.4023 11.1973 25.3301 11.4609 24.3809 11.9707C23.4141 12.4805 22.6406 13.1309 22.0781 13.9395C21.498 14.748 21.1816 15.5566 21.1113 16.3828C21.0762 16.8047 21.2695 16.998 21.709 16.998C21.9551 16.998 22.2715 16.9277 22.6582 16.7871C23.0801 16.6289 23.4141 16.4707 23.625 16.3125C23.8359 16.1543 23.9941 15.9785 24.0645 15.7676C24.1348 15.5566 24.1875 15.293 24.1875 14.959C24.1875 14.3965 24.3984 13.957 24.8203 13.6055C25.2422 13.2715 25.875 13.1309 26.7012 13.166C27.2285 13.2012 27.7031 13.3594 28.1602 13.6406C28.5996 13.9219 28.9512 14.3086 29.2148 14.8008C29.4785 15.293 29.6191 15.873 29.6191 16.5059C29.6191 17.1387 29.5488 17.6484 29.4258 18C29.3027 18.3516 29.1094 18.6152 28.8633 18.791C28.6172 18.9668 28.2656 19.0898 27.8438 19.1602L25.4883 19.6172C22.5 20.1973 21.0059 21.6035 21.0059 23.8535C21.0059 24.5215 21.1816 25.1367 21.5684 25.6641C21.9375 26.1914 22.4297 26.6133 23.0449 26.9121ZM28.582 24.873C27.9844 25.4355 27.2812 25.7168 26.4727 25.7168C25.7344 25.7168 25.1367 25.5234 24.6797 25.1367C24.2227 24.75 24.0117 24.2578 24.0117 23.625C24.0117 22.8516 24.2051 22.2363 24.627 21.7441C25.0312 21.252 25.7168 20.9004 26.7012 20.6719L28.2656 20.3027C28.4941 20.25 28.6699 20.2148 28.8105 20.2148C29.0039 20.2148 29.1445 20.2852 29.2324 20.4082C29.3203 20.5312 29.373 20.7246 29.4082 21.0059C29.4434 21.2871 29.4609 21.709 29.4609 22.2715C29.4609 23.4492 29.1621 24.3105 28.582 24.873ZM42.6094 5.16797C43.3828 3.72656 44.6309 3.00586 46.3535 3.00586C46.7402 3.00586 47.0566 3.05859 47.3027 3.12891C47.5488 3.2168 47.8125 3.33984 48.0762 3.49805C48.3047 3.63867 48.5156 3.76172 48.7266 3.83203C48.9199 3.90234 49.166 3.9375 49.4824 3.9375C49.9395 3.9375 50.3086 3.81445 50.5898 3.5332C50.8711 3.26953 51.0117 2.95312 51.0117 2.58398C51.0117 2.30273 50.9062 2.02148 50.7129 1.72266C50.5195 1.44141 50.2031 1.19531 49.7812 0.984375C49.3594 0.773438 48.8145 0.667969 48.1641 0.667969C46.6172 0.667969 45.1758 1.05469 43.875 1.79297C42.5742 2.54883 41.502 3.69141 40.6934 5.20312C39.8672 6.73242 39.4102 8.61328 39.3223 10.8281C39.2871 11.4434 39.0234 11.7422 38.5312 11.7422H37.6348C37.248 11.7422 36.9492 11.8828 36.7383 12.1641C36.5098 12.4453 36.4043 12.709 36.4043 12.9902C36.4043 13.4297 36.7559 13.6406 37.459 13.6406C38.1094 13.6406 38.5664 13.7461 38.8125 13.9219C39.0586 14.1152 39.1816 14.4844 39.1816 15.0469V21.7793C39.1816 22.8516 39.1289 23.6426 39.0586 24.1523C38.9883 24.6621 38.8125 25.0664 38.5664 25.3477C38.3027 25.6289 37.8809 25.875 37.3184 26.0684C37.0723 26.1387 36.9141 26.2266 36.8086 26.3145C36.7031 26.4023 36.668 26.5254 36.668 26.6836C36.668 26.9648 36.8613 27.1055 37.248 27.1055C37.7578 27.1055 38.4082 27.0879 39.2168 27.0352L40.1836 27H41.0977C41.4316 27 41.8535 27.0176 42.3809 27.0352C42.8379 27.0703 43.2246 27.0703 43.5059 27.0703C43.8223 27.0703 44.0508 27.0352 44.1914 26.9648C44.332 26.8945 44.4023 26.7715 44.4023 26.5781C44.4023 26.4375 44.3496 26.3145 44.2617 26.209C44.1562 26.1211 44.0156 26.0508 43.8223 25.998C43.2598 25.8574 42.8203 25.6641 42.5039 25.418C42.1875 25.1719 41.9414 24.75 41.7656 24.1875C41.5898 23.625 41.5195 22.834 41.5195 21.7793V14.4668C41.5195 14.2207 41.5723 14.0098 41.6953 13.834C41.8008 13.6582 41.9941 13.5703 42.2754 13.5703H44.332C44.5957 13.5703 44.8242 13.5 45.0352 13.3594C45.2285 13.2188 45.3691 13.0605 45.4746 12.8848C45.5801 12.709 45.6328 12.5332 45.6328 12.3926C45.6328 11.9707 45.3164 11.7422 44.6836 11.7422H42.2051C41.9238 11.7422 41.7129 11.6719 41.6074 11.5312C41.502 11.3906 41.4492 11.1094 41.4492 10.6875C41.4492 8.45508 41.8359 6.60938 42.6094 5.16797ZM51.1348 7.22461C51.4863 7.59375 51.9785 7.76953 52.6113 7.76953C53.1914 7.76953 53.666 7.59375 54.0527 7.20703C54.4395 6.83789 54.6328 6.36328 54.6328 5.7832C54.6328 5.23828 54.4395 4.79883 54.0879 4.44727C53.7188 4.0957 53.2266 3.91992 52.6113 3.91992C51.9785 3.91992 51.4863 4.0957 51.1348 4.44727C50.7656 4.79883 50.5898 5.23828 50.5898 5.7832C50.5898 6.38086 50.7656 6.85547 51.1348 7.22461ZM52.6992 11.0039C52.5586 10.8633 52.4004 10.793 52.207 10.793C51.9609 10.793 51.7676 10.8633 51.6094 10.9688C51.4512 11.0918 51.2754 11.3027 51.082 11.584C50.8359 12.0059 50.5371 12.3398 50.1855 12.6035C49.834 12.8848 49.377 13.1836 48.7793 13.5352C48.6562 13.6055 48.5508 13.7109 48.4805 13.8164C48.3926 13.9395 48.3574 14.0449 48.3574 14.1504C48.3574 14.3965 48.5156 14.6074 48.8672 14.7656C49.3945 14.9941 49.7812 15.3809 50.0098 15.9082C50.2207 16.4531 50.3438 17.2617 50.3789 18.3164V21.7793C50.3789 22.834 50.3262 23.625 50.2383 24.1523C50.1504 24.6797 49.9746 25.1016 49.6934 25.3828C49.4121 25.6641 48.9902 25.8926 48.4277 26.0684C48.1465 26.1387 47.9355 26.2266 47.8301 26.3145C47.7246 26.4023 47.6719 26.5254 47.6719 26.6836C47.6719 26.9648 47.9004 27.1055 48.3574 27.1055C48.8672 27.1055 49.5176 27.0879 50.3262 27.0352L51.3105 27H52.3125C52.6465 27 53.0684 27.0352 53.5957 27.0703C54.0527 27.123 54.4395 27.1406 54.7207 27.1406C55.0371 27.1406 55.2832 27.1055 55.4414 27.0352C55.582 26.9648 55.6699 26.8418 55.6699 26.6484C55.6699 26.3848 55.459 26.1914 55.0547 26.0684C54.4922 25.8926 54.0527 25.6816 53.7363 25.418C53.4199 25.1719 53.1914 24.75 53.0156 24.1875C52.8398 23.625 52.752 22.834 52.752 21.7793L52.7168 16.6992C52.7168 15.6621 52.752 14.3789 52.8574 12.832L52.8926 12.0234V11.584C52.8926 11.3379 52.8223 11.1445 52.6992 11.0039ZM75.1641 26.543C75.1641 26.209 74.9531 25.9805 74.5664 25.875C73.916 25.6992 73.4414 25.4883 73.1426 25.2422C72.8262 24.9961 72.6152 24.6094 72.5098 24.082C72.3867 23.5723 72.334 22.7988 72.334 21.7793C72.334 21.252 72.334 20.3906 72.3691 19.2129L72.3867 16.6816C72.3867 15.7676 72.1582 14.8887 71.7188 14.0449C71.2617 13.2012 70.6289 12.5156 69.8203 11.9883C69.0117 11.4609 68.0801 11.1973 67.043 11.1973C66.4805 11.1973 65.9707 11.2852 65.5137 11.4258C65.0566 11.5664 64.5117 11.8301 63.8965 12.1992C63.7031 12.3047 63.5449 12.3574 63.4043 12.3574C63.2285 12.3574 63.0703 12.2871 62.9473 12.1289C62.8066 11.9707 62.7012 11.7422 62.6133 11.4434C62.543 11.2324 62.4375 11.0742 62.2969 10.9512C62.1562 10.8457 61.998 10.7754 61.8398 10.7754C61.6641 10.7754 61.4707 10.8457 61.2949 10.9863C61.1191 11.127 60.9609 11.3203 60.8203 11.584C60.5742 12.0586 60.3105 12.4277 60.0293 12.709C59.748 12.9902 59.3789 13.2539 58.9043 13.5352C58.7637 13.6055 58.6582 13.7109 58.5879 13.8164C58.5176 13.9395 58.4824 14.0625 58.4824 14.168C58.4824 14.4316 58.6406 14.625 58.9922 14.7656C59.5195 14.9941 59.9062 15.3809 60.1348 15.9082C60.3457 16.4531 60.4688 17.2617 60.5039 18.3164V21.7793C60.5039 22.834 60.4512 23.625 60.3633 24.1523C60.2754 24.6797 60.0996 25.1016 59.8184 25.3828C59.5371 25.6641 59.1152 25.8926 58.5527 26.0684C58.2715 26.1387 58.0605 26.2266 57.9551 26.3145C57.8496 26.4023 57.7969 26.5254 57.7969 26.6836C57.7969 26.9648 58.0254 27.1055 58.4824 27.1055C58.8164 27.1055 59.1328 27.1055 59.4141 27.0879C59.6953 27.0879 59.9238 27.0703 60.1348 27.0527C60.627 27.0176 61.0488 27 61.4355 27H62.4375C62.8945 27 63.4043 27.0352 63.9492 27.0703C64.3711 27.1055 64.6699 27.1055 64.8457 27.1055C65.1621 27.1055 65.4082 27.0703 65.5664 27C65.707 26.9297 65.7949 26.8066 65.7949 26.6133C65.7949 26.3496 65.584 26.1562 65.1797 26.0332C64.6172 25.8926 64.1777 25.6816 63.8613 25.4355C63.5449 25.1895 63.2988 24.7676 63.123 24.2051C62.9473 23.6426 62.8418 22.834 62.8418 21.7793L62.8066 15.9785C62.8066 14.168 63.8438 13.2539 65.9355 13.2539C66.6914 13.2539 67.377 13.4648 67.9746 13.8867C68.5723 14.3086 69.0293 14.8887 69.3633 15.627C69.6973 16.3652 69.873 17.209 69.873 18.123V21.7793C69.873 22.7637 69.8027 23.5371 69.6797 24.082C69.5566 24.6445 69.3633 25.0664 69.082 25.3477C68.8008 25.6465 68.3789 25.8926 67.834 26.0684C67.5352 26.1738 67.3418 26.2617 67.2363 26.332C67.1309 26.4199 67.0781 26.543 67.0781 26.6836C67.0781 26.8242 67.1309 26.9297 67.2539 27C67.377 27.0703 67.5527 27.1055 67.7637 27.1055C68.2559 27.1055 68.8008 27.0879 69.3984 27.0352C69.7852 27.0176 70.0488 27 70.1719 27H71.1738C71.5254 27 72.0527 27.0352 72.791 27.0703C72.9668 27.0879 73.1953 27.1055 73.4414 27.1055C73.6875 27.123 73.9512 27.123 74.2324 27.123C74.8477 27.123 75.1641 26.9297 75.1641 26.543ZM90.8965 27.0879C92.127 27.3516 93.2695 27.4746 94.3242 27.4746C95.7305 27.4746 97.0488 27.1582 98.2793 26.5254C99.5098 25.8926 100.477 25.0664 101.215 24.0293C101.936 23.0098 102.305 21.9199 102.305 20.7598C102.305 19.7227 102.111 18.791 101.76 17.9473C101.391 17.1035 100.758 16.3301 99.8438 15.6094C98.9297 14.8887 97.6816 14.2383 96.0996 13.6758L94.0078 12.9375C92.5312 12.4453 91.459 11.8301 90.791 11.127C90.123 10.4238 89.7891 9.50977 89.7891 8.36719C89.7891 7.48828 89.9824 6.73242 90.4043 6.13477C90.8086 5.53711 91.3535 5.08008 92.0391 4.78125C92.7246 4.5 93.498 4.3418 94.3418 4.3418C95.748 4.3418 96.8906 4.79883 97.752 5.71289C98.6133 6.62695 99.2988 8.0332 99.8262 9.94922C99.8965 10.2129 100.002 10.4062 100.143 10.5293C100.283 10.6699 100.459 10.7227 100.635 10.7227C100.846 10.7227 101.021 10.6523 101.18 10.5117C101.338 10.3711 101.426 10.1602 101.426 9.89648V5.32617C101.426 5.13281 101.373 4.95703 101.268 4.78125C101.162 4.62305 100.934 4.44727 100.617 4.27148C99.6855 3.7793 98.7188 3.41016 97.6992 3.14648C96.6797 2.88281 95.5371 2.74219 94.2715 2.74219C92.8477 2.74219 91.5645 3.02344 90.4395 3.55078C89.2969 4.07812 88.4004 4.83398 87.75 5.80078C87.0996 6.78516 86.7832 7.89258 86.7832 9.1582C86.7832 10.7051 87.2578 12.0234 88.2422 13.0957C89.2266 14.1855 90.8438 15.082 93.0938 15.7852L94.8867 16.3652C96.5566 16.9102 97.7344 17.6133 98.4023 18.4746C99.0703 19.3359 99.4043 20.3555 99.4043 21.5156C99.4043 22.2891 99.1934 22.9746 98.7891 23.6074C98.3848 24.2402 97.8047 24.7324 97.0664 25.1016C96.3281 25.4707 95.4668 25.6465 94.5 25.6465C93.3047 25.6465 92.2148 25.3828 91.2656 24.8555C90.5625 24.3281 89.9297 23.6074 89.3672 22.7109C88.8047 21.8145 88.3652 20.7949 88.0664 19.6348C87.9082 19.0723 87.6445 18.7734 87.293 18.7734C87.0645 18.7734 86.8887 18.8613 86.7832 19.0371C86.6602 19.2129 86.6074 19.4238 86.6074 19.6875L86.5898 23.9062C86.5898 24.3984 86.625 24.7676 86.6953 25.0137C86.7656 25.2773 86.8887 25.5059 87.0996 25.6816C87.3105 25.875 87.627 26.0684 88.084 26.2617C88.7168 26.5605 89.666 26.8418 90.8965 27.0879ZM108.369 7.22461C108.721 7.59375 109.213 7.76953 109.846 7.76953C110.426 7.76953 110.9 7.59375 111.287 7.20703C111.674 6.83789 111.867 6.36328 111.867 5.7832C111.867 5.23828 111.674 4.79883 111.322 4.44727C110.953 4.0957 110.461 3.91992 109.846 3.91992C109.213 3.91992 108.721 4.0957 108.369 4.44727C108 4.79883 107.824 5.23828 107.824 5.7832C107.824 6.38086 108 6.85547 108.369 7.22461ZM109.934 11.0039C109.793 10.8633 109.635 10.793 109.441 10.793C109.195 10.793 109.002 10.8633 108.844 10.9688C108.686 11.0918 108.51 11.3027 108.316 11.584C108.07 12.0059 107.771 12.3398 107.42 12.6035C107.068 12.8848 106.611 13.1836 106.014 13.5352C105.891 13.6055 105.785 13.7109 105.715 13.8164C105.627 13.9395 105.592 14.0449 105.592 14.1504C105.592 14.3965 105.75 14.6074 106.102 14.7656C106.629 14.9941 107.016 15.3809 107.244 15.9082C107.455 16.4531 107.578 17.2617 107.613 18.3164V21.7793C107.613 22.834 107.561 23.625 107.473 24.1523C107.385 24.6797 107.209 25.1016 106.928 25.3828C106.646 25.6641 106.225 25.8926 105.662 26.0684C105.381 26.1387 105.17 26.2266 105.064 26.3145C104.959 26.4023 104.906 26.5254 104.906 26.6836C104.906 26.9648 105.135 27.1055 105.592 27.1055C106.102 27.1055 106.752 27.0879 107.561 27.0352L108.545 27H109.547C109.881 27 110.303 27.0352 110.83 27.0703C111.287 27.123 111.674 27.1406 111.955 27.1406C112.271 27.1406 112.518 27.1055 112.676 27.0352C112.816 26.9648 112.904 26.8418 112.904 26.6484C112.904 26.3848 112.693 26.1914 112.289 26.0684C111.727 25.8926 111.287 25.6816 110.971 25.418C110.654 25.1719 110.426 24.75 110.25 24.1875C110.074 23.625 109.986 22.834 109.986 21.7793L109.951 16.6992C109.951 15.6621 109.986 14.3789 110.092 12.832L110.127 12.0234V11.584C110.127 11.3379 110.057 11.1445 109.934 11.0039ZM132.398 26.543C132.398 26.209 132.188 25.9805 131.801 25.875C131.15 25.6992 130.676 25.4883 130.377 25.2422C130.061 24.9961 129.85 24.6094 129.744 24.082C129.621 23.5723 129.568 22.7988 129.568 21.7793C129.568 21.252 129.568 20.3906 129.604 19.2129L129.621 16.6816C129.621 15.7676 129.393 14.8887 128.953 14.0449C128.496 13.2012 127.863 12.5156 127.055 11.9883C126.246 11.4609 125.314 11.1973 124.277 11.1973C123.715 11.1973 123.205 11.2852 122.748 11.4258C122.291 11.5664 121.746 11.8301 121.131 12.1992C120.938 12.3047 120.779 12.3574 120.639 12.3574C120.463 12.3574 120.305 12.2871 120.182 12.1289C120.041 11.9707 119.936 11.7422 119.848 11.4434C119.777 11.2324 119.672 11.0742 119.531 10.9512C119.391 10.8457 119.232 10.7754 119.074 10.7754C118.898 10.7754 118.705 10.8457 118.529 10.9863C118.354 11.127 118.195 11.3203 118.055 11.584C117.809 12.0586 117.545 12.4277 117.264 12.709C116.982 12.9902 116.613 13.2539 116.139 13.5352C115.998 13.6055 115.893 13.7109 115.822 13.8164C115.752 13.9395 115.717 14.0625 115.717 14.168C115.717 14.4316 115.875 14.625 116.227 14.7656C116.754 14.9941 117.141 15.3809 117.369 15.9082C117.58 16.4531 117.703 17.2617 117.738 18.3164V21.7793C117.738 22.834 117.686 23.625 117.598 24.1523C117.51 24.6797 117.334 25.1016 117.053 25.3828C116.771 25.6641 116.35 25.8926 115.787 26.0684C115.506 26.1387 115.295 26.2266 115.189 26.3145C115.084 26.4023 115.031 26.5254 115.031 26.6836C115.031 26.9648 115.26 27.1055 115.717 27.1055C116.051 27.1055 116.367 27.1055 116.648 27.0879C116.93 27.0879 117.158 27.0703 117.369 27.0527C117.861 27.0176 118.283 27 118.67 27H119.672C120.129 27 120.639 27.0352 121.184 27.0703C121.605 27.1055 121.904 27.1055 122.08 27.1055C122.396 27.1055 122.643 27.0703 122.801 27C122.941 26.9297 123.029 26.8066 123.029 26.6133C123.029 26.3496 122.818 26.1562 122.414 26.0332C121.852 25.8926 121.412 25.6816 121.096 25.4355C120.779 25.1895 120.533 24.7676 120.357 24.2051C120.182 23.6426 120.076 22.834 120.076 21.7793L120.041 15.9785C120.041 14.168 121.078 13.2539 123.17 13.2539C123.926 13.2539 124.611 13.4648 125.209 13.8867C125.807 14.3086 126.264 14.8887 126.598 15.627C126.932 16.3652 127.107 17.209 127.107 18.123V21.7793C127.107 22.7637 127.037 23.5371 126.914 24.082C126.791 24.6445 126.598 25.0664 126.316 25.3477C126.035 25.6465 125.613 25.8926 125.068 26.0684C124.77 26.1738 124.576 26.2617 124.471 26.332C124.365 26.4199 124.312 26.543 124.312 26.6836C124.312 26.8242 124.365 26.9297 124.488 27C124.611 27.0703 124.787 27.1055 124.998 27.1055C125.49 27.1055 126.035 27.0879 126.633 27.0352C127.02 27.0176 127.283 27 127.406 27H128.408C128.76 27 129.287 27.0352 130.025 27.0703C130.201 27.0879 130.43 27.1055 130.676 27.1055C130.922 27.123 131.186 27.123 131.467 27.123C132.082 27.123 132.398 26.9297 132.398 26.543ZM136.898 34.1895C137.742 34.541 138.744 34.6992 139.904 34.6992C142.049 34.6992 143.93 34.3828 145.564 33.7324C147.199 33.082 148.447 32.2383 149.326 31.2188C150.205 30.1992 150.645 29.1621 150.645 28.1074C150.645 27.0703 150.205 26.2441 149.361 25.6465C148.5 25.0488 147.252 24.7324 145.6 24.7324H139.746C139.113 24.7324 138.621 24.5918 138.287 24.2754C137.936 23.959 137.777 23.5898 137.777 23.1504C137.777 22.7637 137.953 22.4121 138.322 22.0957C138.674 21.7969 139.113 21.6387 139.641 21.6387C139.799 21.6387 139.975 21.6562 140.168 21.6562C140.361 21.6738 140.52 21.6914 140.625 21.6914C140.941 21.7266 141.258 21.7441 141.574 21.7441C142.734 21.7441 143.789 21.5332 144.756 21.0762C145.723 20.6191 146.496 19.9863 147.059 19.1426C147.621 18.3164 147.902 17.3496 147.902 16.2422C147.902 15.8379 147.85 15.4336 147.779 15.0117C147.744 14.8711 147.744 14.7832 147.744 14.7129C147.744 14.2207 148.025 13.957 148.605 13.957C148.781 13.957 148.939 13.9746 149.045 13.9922L150.1 14.1855C150.275 14.2207 150.416 14.2207 150.486 14.2207C150.926 14.2207 151.242 14.0801 151.453 13.7988C151.664 13.5176 151.77 13.1484 151.77 12.6738C151.77 12.1816 151.682 11.7949 151.541 11.5488C151.4 11.3027 151.154 11.1797 150.803 11.1797C150.521 11.1797 150.17 11.2676 149.713 11.4258L147.744 12.1465C147.27 12.3223 146.883 12.3926 146.584 12.3926C146.268 12.3926 145.951 12.3223 145.652 12.1465C145.072 11.8301 144.492 11.6016 143.895 11.4434C143.297 11.2852 142.664 11.1973 141.961 11.1973C140.854 11.1973 139.816 11.4258 138.867 11.8828C137.9 12.3398 137.127 12.9727 136.564 13.8164C135.984 14.6602 135.703 15.6445 135.703 16.752C135.703 17.4199 135.826 18.0352 136.09 18.6152C136.354 19.2129 136.705 19.7051 137.162 20.1094C137.408 20.373 137.549 20.6016 137.549 20.8125C137.549 21.1113 137.32 21.375 136.898 21.5859L136.441 21.8145C135.914 22.0781 135.527 22.3945 135.264 22.7637C135 23.1504 134.877 23.5547 134.877 23.9941C134.877 24.5039 134.982 24.9258 135.193 25.2422C135.404 25.5586 135.703 25.875 136.072 26.1562C136.318 26.3672 136.512 26.5254 136.635 26.666C136.74 26.8066 136.811 26.9824 136.811 27.1582C136.811 27.334 136.74 27.4922 136.635 27.6152C136.512 27.7559 136.318 27.9141 136.055 28.1074C135.703 28.3535 135.422 28.5996 135.211 28.8281C134.982 29.0566 134.789 29.3555 134.631 29.7422C134.455 30.1289 134.385 30.5859 134.385 31.1484C134.385 31.7461 134.596 32.3262 135.018 32.8535C135.439 33.3984 136.055 33.8379 136.898 34.1895ZM144.598 19.2129C144.07 19.8105 143.297 20.1094 142.26 20.1094C141.592 20.1094 140.959 19.9512 140.326 19.6172C139.693 19.2832 139.184 18.8086 138.779 18.1934C138.375 17.5781 138.182 16.875 138.182 16.0664C138.182 15.0469 138.463 14.2383 139.025 13.6406C139.588 13.043 140.379 12.7441 141.434 12.7441C142.207 12.7441 142.893 12.9199 143.49 13.2539C144.088 13.6055 144.562 14.0625 144.896 14.6602C145.213 15.2578 145.389 15.9258 145.389 16.6641C145.389 17.7539 145.125 18.6152 144.598 19.2129ZM144.738 32.5723C143.648 32.9766 142.4 33.1699 140.994 33.1699C139.693 33.1699 138.727 32.9414 138.059 32.4668C137.391 32.0098 137.057 31.4121 137.057 30.709C137.057 30.1289 137.285 29.5488 137.742 28.9688C138.199 28.4062 138.85 27.9316 139.693 27.5625C140.537 27.1934 141.521 27 142.629 27H145.6C146.355 27 146.953 27.2109 147.41 27.5977C147.85 28.002 148.078 28.5293 148.078 29.1621C148.078 29.8125 147.779 30.4453 147.217 31.0605C146.637 31.6758 145.811 32.1855 144.738 32.5723ZM170.016 26.543C170.016 26.209 169.805 25.9805 169.418 25.875C168.768 25.6992 168.293 25.4883 167.994 25.2422C167.678 24.9961 167.467 24.6094 167.361 24.082C167.238 23.5723 167.186 22.7988 167.186 21.7793C167.186 21.252 167.186 20.3906 167.221 19.2129L167.238 16.6816C167.238 15.7676 167.01 14.8887 166.57 14.0449C166.113 13.2012 165.48 12.5156 164.672 11.9883C163.863 11.4609 162.932 11.1973 161.895 11.1973C161.332 11.1973 160.822 11.2852 160.365 11.4258C159.908 11.5664 159.363 11.8301 158.748 12.1992C158.572 12.3047 158.396 12.3574 158.256 12.3574C158.08 12.3574 157.957 12.3047 157.852 12.1641C157.746 12.041 157.693 11.8477 157.693 11.6016V8.52539C157.693 6.31055 157.729 4.71094 157.834 3.72656C157.922 2.75977 158.027 2.02148 158.168 1.5293C158.203 1.30078 158.238 1.14258 158.238 1.07227C158.238 0.878906 158.186 0.738281 158.08 0.632812C157.975 0.527344 157.834 0.474609 157.658 0.474609C157.518 0.474609 157.359 0.509766 157.219 0.580078C157.061 0.650391 156.92 0.720703 156.797 0.826172C156.322 1.23047 155.848 1.54688 155.373 1.77539C154.898 2.00391 154.389 2.17969 153.844 2.30273C153.404 2.39062 153.193 2.58398 153.193 2.88281C153.193 3.00586 153.211 3.11133 153.281 3.18164C153.352 3.26953 153.457 3.375 153.615 3.49805C154.09 3.86719 154.424 4.16602 154.635 4.41211C154.846 4.6582 155.004 5.09766 155.145 5.71289C155.268 6.3457 155.338 7.27734 155.355 8.52539V21.7793C155.355 22.8516 155.303 23.6426 155.232 24.1523C155.162 24.6621 154.986 25.0664 154.74 25.3477C154.477 25.6289 154.055 25.875 153.475 26.0684C153.229 26.1562 153.07 26.2441 152.965 26.332C152.859 26.4199 152.824 26.543 152.824 26.6836C152.824 26.9648 153.018 27.1055 153.404 27.1055C153.932 27.1055 154.6 27.0879 155.373 27.0352L156.357 27H157.254C157.482 27 157.729 27.0176 157.975 27.0352C158.221 27.0527 158.414 27.0527 158.537 27.0527C158.906 27.0879 159.293 27.1055 159.68 27.1055C159.996 27.1055 160.225 27.0703 160.365 27C160.506 26.9297 160.576 26.8066 160.576 26.6133C160.576 26.4727 160.523 26.3496 160.436 26.2617C160.348 26.1738 160.207 26.1035 159.996 26.0332C159.434 25.8574 158.994 25.6465 158.678 25.4004C158.361 25.1543 158.115 24.75 157.939 24.1875C157.764 23.625 157.693 22.834 157.693 21.7793V15.9785C157.693 15.0293 157.939 14.3438 158.467 13.9043C158.994 13.4824 159.768 13.2539 160.787 13.2539C161.543 13.2539 162.229 13.4648 162.826 13.8867C163.424 14.3086 163.881 14.8887 164.215 15.627C164.549 16.3652 164.725 17.209 164.725 18.123V21.7793C164.725 22.7637 164.654 23.5371 164.531 24.082C164.408 24.6445 164.215 25.0664 163.934 25.3477C163.652 25.6465 163.23 25.8926 162.686 26.0684C162.387 26.1738 162.193 26.2617 162.088 26.332C161.982 26.4199 161.93 26.543 161.93 26.6836C161.93 26.8242 161.982 26.9297 162.105 27C162.229 27.0703 162.404 27.1055 162.615 27.1055C163.107 27.1055 163.652 27.0879 164.25 27.0352C164.637 27.0176 164.9 27 165.023 27H166.025C166.377 27 166.904 27.0352 167.643 27.0703C167.818 27.0879 168.047 27.1055 168.293 27.1055C168.539 27.123 168.803 27.123 169.084 27.123C169.699 27.123 170.016 26.9297 170.016 26.543Z" fill="black"/>
</g>
<defs>
<clipPath id="clip0_1_2">
<rect width="171" height="36" fill="white"/>
</clipPath>
</defs>
</svg>
